<svg width="37" height="32" viewBox="0 0 37 32" fill="none" xmlns="http://www.w3.org/2000/svg">
<g clip-path="url(#clip0)">
<path d="M28.4109 13.7746H6.51424C6.39929 13.7922 6.29426 13.8524 6.21832 13.9442C6.14237 14.036 6.10059 14.1533 6.10059 14.2746C6.10059 14.3959 6.14237 14.5131 6.21832 14.6049C6.29426 14.6967 6.39929 14.7569 6.51424 14.7746H28.4109C28.5259 14.7569 28.6309 14.6967 28.7068 14.6049C28.7828 14.5131 28.8246 14.3959 28.8246 14.2746C28.8246 14.1533 28.7828 14.036 28.7068 13.9442C28.6309 13.8524 28.5259 13.7922 28.4109 13.7746Z" fill="black"/>
<path d="M17.3792 27.0007L12.4664 24.5275L14.3924 22.5705C14.456 22.5066 14.5013 22.4254 14.5232 22.3362C14.545 22.2469 14.5425 22.153 14.516 22.0651C14.487 21.9759 14.4352 21.8967 14.3662 21.836C14.2972 21.7754 14.2137 21.7356 14.1246 21.721L10.9626 21.2371L9.53102 18.2048C9.48616 18.1268 9.42275 18.0623 9.34694 18.0176C9.27114 17.9728 9.18553 17.9492 9.09844 17.9492C9.01135 17.9492 8.92574 17.9728 8.84994 18.0176C8.77414 18.0623 8.71072 18.1268 8.66586 18.2048L7.27544 21.1941L4.1135 21.678C4.0244 21.6926 3.94084 21.7324 3.87185 21.793C3.80287 21.8537 3.75109 21.9329 3.72212 22.0221C3.69558 22.11 3.69308 22.2038 3.71492 22.2931C3.73676 22.3824 3.78206 22.4636 3.84571 22.5274L6.13219 24.8608L5.59662 28.1512C5.58132 28.2419 5.59057 28.3353 5.62333 28.4207C5.65608 28.5062 5.71104 28.5805 5.78201 28.6351C5.86575 28.6988 5.96683 28.7327 6.0704 28.7319C6.1418 28.7467 6.21528 28.7467 6.28669 28.7319L9.11904 27.1727L11.9514 28.7319C12.0301 28.7761 12.1193 28.7962 12.2085 28.7897C12.2977 28.7833 12.3833 28.7506 12.4555 28.6955C12.5277 28.6404 12.5834 28.5651 12.6163 28.4783C12.6493 28.3915 12.658 28.2968 12.6415 28.205L12.3531 26.42C12.3433 26.3549 12.3209 26.2926 12.2872 26.2368C12.2535 26.1811 12.2093 26.1331 12.1572 26.0959C12.1051 26.0586 12.0463 26.0329 11.9843 26.0202C11.9224 26.0075 11.8586 26.0082 11.7969 26.0222C11.7353 26.0326 11.6763 26.0556 11.6232 26.09C11.5702 26.1243 11.5241 26.1692 11.4878 26.2222C11.4514 26.2751 11.4254 26.3351 11.4113 26.3986C11.3972 26.462 11.3952 26.5278 11.4055 26.5921L11.5394 27.377L9.34563 26.1727C9.27713 26.1359 9.20122 26.1167 9.12419 26.1167C9.04716 26.1167 8.97125 26.1359 8.90275 26.1727L6.69866 27.3233L7.12094 24.7748C7.13173 24.693 7.12434 24.6098 7.09933 24.5314C7.07433 24.4531 7.03238 24.3819 6.97675 24.3232L5.20524 22.5167L7.65652 22.1511C7.73376 22.1384 7.80691 22.1063 7.86969 22.0576C7.93247 22.0089 7.98301 21.945 8.017 21.8715L9.11904 19.5489L10.2211 21.8715C10.2543 21.9456 10.3047 22.0099 10.3676 22.0587C10.4305 22.1075 10.504 22.1393 10.5816 22.1511L13.0328 22.5167L11.6733 23.9038C11.6392 23.9442 11.6082 23.9873 11.5806 24.0329L9.32503 22.8823C9.21136 22.8259 9.08111 22.8179 8.9619 22.8601C8.84269 22.9022 8.7439 22.9912 8.68646 23.1081C8.65833 23.1666 8.64162 23.2304 8.63728 23.2957C8.63294 23.361 8.64106 23.4266 8.66118 23.4886C8.6813 23.5506 8.71302 23.6079 8.75448 23.657C8.79595 23.7061 8.84635 23.7462 8.90275 23.7748L16.9569 27.8932C17.0249 27.908 17.095 27.908 17.1629 27.8932C17.2735 27.8991 17.3826 27.8645 17.4713 27.7952C17.5599 27.726 17.6225 27.6265 17.6482 27.514C17.6739 27.4016 17.6611 27.2833 17.612 27.1797C17.5628 27.0761 17.4805 26.9937 17.3792 26.9469V27.0007Z" fill="black"/>
<path d="M19.8306 20.2263H27.8436C27.9586 20.2087 28.0636 20.1485 28.1396 20.0567C28.2155 19.9649 28.2573 19.8476 28.2573 19.7263C28.2573 19.605 28.2155 19.4878 28.1396 19.396C28.0636 19.3042 27.9586 19.2439 27.8436 19.2263H19.8306C19.7157 19.2439 19.6107 19.3042 19.5347 19.396C19.4588 19.4878 19.417 19.605 19.417 19.7263C19.417 19.8476 19.4588 19.9649 19.5347 20.0567C19.6107 20.1485 19.7157 20.2087 19.8306 20.2263Z" fill="black"/>
<path d="M19.8306 22.3769H27.8436C27.9586 22.3592 28.0636 22.299 28.1396 22.2072C28.2155 22.1154 28.2573 21.9982 28.2573 21.8769C28.2573 21.7556 28.2155 21.6383 28.1396 21.5465C28.0636 21.4547 27.9586 21.3945 27.8436 21.3769H19.8306C19.7157 21.3945 19.6107 21.4547 19.5347 21.5465C19.4588 21.6383 19.417 21.7556 19.417 21.8769C19.417 21.9982 19.4588 22.1154 19.5347 22.2072C19.6107 22.299 19.7157 22.3592 19.8306 22.3769Z" fill="black"/>
<path d="M29.7703 24.8931H24.2189C24.0932 24.8931 23.9727 24.9453 23.8839 25.038C23.795 25.1308 23.7451 25.2566 23.7451 25.3878C23.7451 25.519 23.795 25.6448 23.8839 25.7375C23.9727 25.8303 24.0932 25.8824 24.2189 25.8824H29.7703C29.8325 25.8824 29.8941 25.8696 29.9516 25.8448C30.0091 25.8199 30.0613 25.7835 30.1053 25.7375C30.1493 25.6916 30.1842 25.6371 30.208 25.5771C30.2318 25.5171 30.2441 25.4527 30.2441 25.3878C30.2455 25.3224 30.2342 25.2574 30.2109 25.1968C30.1876 25.1361 30.1527 25.081 30.1085 25.0347C30.0642 24.9885 30.0114 24.9521 29.9533 24.9278C29.8952 24.9035 29.8329 24.8917 29.7703 24.8931Z" fill="black"/>
<path d="M29.7696 26.9469H19.8306C19.7157 26.9646 19.6107 27.0248 19.5347 27.1166C19.4588 27.2084 19.417 27.3256 19.417 27.4469C19.417 27.5682 19.4588 27.6855 19.5347 27.7773C19.6107 27.8691 19.7157 27.9293 19.8306 27.9469H29.7284C29.8434 27.9293 29.9484 27.8691 30.0244 27.7773C30.1003 27.6855 30.1421 27.5682 30.1421 27.4469C30.1421 27.3256 30.1003 27.2084 30.0244 27.1166C29.9484 27.0248 29.8434 26.9646 29.7284 26.9469H29.7696Z" fill="black"/>
<path d="M35.7248 12.4949L10.3984 0.193554C10.1268 0.0643718 9.83162 -0.00166961 9.53321 3.81784e-07C9.0494 0.0172588 8.57986 0.175436 8.17763 0.456661C7.7754 0.737886 7.45653 1.13095 7.25703 1.59144L3.13724 10.7637C2.56894 10.8897 2.06132 11.2207 1.70347 11.6985C1.34561 12.1763 1.1604 12.7705 1.18034 13.3767V15.1724L0.861054 15.9251C0.643307 16.3868 0.560408 16.9051 0.622672 17.4156C0.684936 17.9261 0.889615 18.4062 1.21124 18.7962V29.1835C1.18037 29.8504 1.40351 30.5029 1.83192 30.9985C2.26033 31.4941 2.8592 31.7926 3.49772 31.8288H31.4299C32.0693 31.7926 32.6691 31.4945 33.0992 30.9992C33.5293 30.5039 33.7547 29.8514 33.7267 29.1835V22.678L36.7341 15.9251C37.0124 15.3184 37.0709 14.6271 36.8989 13.9789C36.8207 13.6562 36.6747 13.3556 36.4717 13.099C36.2686 12.8424 36.0135 12.6361 35.7248 12.4949ZM8.50326 2.18285C8.58889 1.96462 8.73018 1.77506 8.91176 1.63477C9.09334 1.49448 9.30828 1.40884 9.53321 1.38713C9.64332 1.39024 9.75178 1.41582 9.85249 1.4624L28.9889 10.7315H25.5901L12.0154 4.0001C11.9042 3.96405 11.7843 3.97102 11.6777 4.01976C11.571 4.06849 11.4848 4.15572 11.4347 4.26546C11.3847 4.37519 11.3742 4.50008 11.4052 4.61724C11.4361 4.73439 11.5065 4.83597 11.6034 4.90335L23.3654 10.7315H20.152L7.41152 4.5485L8.50326 2.18285ZM6.84505 5.81735L17.0209 10.7315H4.66156L6.84505 5.81735ZM32.3774 29.205C32.4066 29.5009 32.3239 29.797 32.1468 30.0301C31.9698 30.2631 31.7125 30.4147 31.4299 30.4524H3.48742C3.20592 30.4121 2.95021 30.2599 2.77365 30.0274C2.59709 29.795 2.51334 29.5004 2.53987 29.205V17.3768H30.6265C30.7207 17.3891 30.8163 17.3803 30.907 17.351C30.9977 17.3218 31.0814 17.2727 31.1525 17.2072C31.2237 17.1416 31.2806 17.0609 31.3197 16.9706C31.3587 16.8803 31.3789 16.7823 31.3789 16.6832C31.3789 16.5841 31.3587 16.4862 31.3197 16.3958C31.2806 16.3055 31.2237 16.2249 31.1525 16.1593C31.0814 16.0937 30.9977 16.0447 30.907 16.0154C30.8163 15.9862 30.7207 15.9774 30.6265 15.9897H2.53987V13.3767C2.51334 13.0813 2.59709 12.7867 2.77365 12.5543C2.95021 12.3219 3.20592 12.1696 3.48742 12.1293H31.4299C31.7125 12.1671 31.9698 12.3186 32.1468 12.5517C32.3239 12.7847 32.4066 13.0808 32.3774 13.3767V29.205ZM35.4673 15.3122L33.6649 19.3983V13.3767C33.6755 13.2659 33.6755 13.1542 33.6649 13.0433L35.148 13.7638C35.2584 13.8175 35.3556 13.8968 35.4323 13.9955C35.509 14.0942 35.5632 14.2099 35.5909 14.3337C35.679 14.6584 35.6535 15.0054 35.5188 15.3122H35.4673Z" fill="black" stroke="#EAEAEA" stroke-width="0.247575"/>
</g>
<defs>
<clipPath id="clip0">
<rect width="36.388" height="31.8395" fill="white" transform="translate(0.612305)"/>
</clipPath>
</defs>
</svg>
