<svg width="39" height="37" viewBox="0 0 39 37" fill="none" xmlns="http://www.w3.org/2000/svg">
<path d="M12.6667 33.5302V34.0254H13.1618V33.5302H12.6667ZM18.1599 25.9302L18.4705 25.5447L18.3345 25.4351H18.1599V25.9302ZM22.7375 29.619L23.2231 29.5222L23.188 29.3461L23.0482 29.2334L22.7375 29.619ZM20.9064 30.9603L20.6138 31.3598L20.725 31.4412L20.8623 31.4535L20.9064 30.9603ZM32.9333 25.9302V25.4351H32.8811L32.8299 25.446L32.9333 25.9302ZM34.2 28.4636L34.4507 28.8906L34.5337 28.8418L34.5924 28.7655L34.2 28.4636ZM21.2543 36.0636L21.0259 36.5029L21.2689 36.6292L21.505 36.4906L21.2543 36.0636ZM14.4746 32.5389L14.703 32.0996L14.6302 32.0618L14.5492 32.0494L14.4746 32.5389ZM7.6 7.06498L7.26044 6.7046L7.10485 6.8512V7.06498H7.6ZM7.6 20.8636H7.10485V21.3587H7.6V20.8636ZM30.1548 20.8636V21.3587H30.3416L30.4818 21.2354L30.1548 20.8636ZM38 0.596893H38.4951V0.101744H38V0.596893ZM14.4645 0.596893V0.101744H14.268L14.125 0.236518L14.4645 0.596893ZM38 13.9643L38.327 14.3361L38.4951 14.1882V13.9643H38ZM14.4645 13.5331H13.9694V14.4868L14.7494 13.938L14.4645 13.5331ZM16.9161 11.8082L17.2431 11.4364L16.9502 11.1788L16.6312 11.4033L16.9161 11.8082ZM18.3871 13.1019L18.0601 13.4737L18.3441 13.7234L18.6597 13.5152L18.3871 13.1019ZM20.3484 11.8082L20.621 11.3949L20.3484 11.2151L20.0758 11.3949L20.3484 11.8082ZM22.3097 13.1019L22.0371 13.5152L22.8048 14.0216V13.1019H22.3097ZM22.3097 7.06498L21.9827 6.69316L21.8145 6.84104V7.06498H22.3097ZM4.00623 2.24203L4.26193 2.66605L4.00623 2.24203ZM4.17847 2.06979L3.75445 1.81409V1.81409L4.17847 2.06979ZM3.25284 3.56411L3.50853 3.14009L3.25284 3.56411ZM3.25284 2.69634L2.99714 2.27232L3.25284 2.69634ZM4.17847 4.19066L3.75445 4.44636L4.17847 4.19066ZM4.00623 4.01842L3.75053 4.44244L4.00623 4.01842ZM5.50055 4.94405L5.07653 4.68836L5.50055 4.94405ZM4.63278 4.94405L5.0568 4.68836V4.68836L4.63278 4.94405ZM6.1271 4.01842L6.3828 4.44244L6.3828 4.44244L6.1271 4.01842ZM5.95486 4.19066L6.37888 4.44636L5.95486 4.19066ZM6.88049 2.69634L6.6248 3.12036L6.88049 2.69634ZM6.88049 3.56411L6.6248 3.14009V3.14009L6.88049 3.56411ZM5.95486 2.06979L5.53085 2.32549V2.32549L5.95486 2.06979ZM6.1271 2.24203L6.3828 1.81801L6.1271 2.24203ZM5.50055 1.3164L5.92457 1.0607L5.92457 1.0607L5.50055 1.3164ZM4.63278 1.3164L5.0568 1.57209V1.57209L4.63278 1.3164ZM0 26.4254H9.12V25.4351H0V26.4254ZM9.12 26.4254H12.6667V25.4351H9.12V26.4254ZM12.6667 33.0351H9.12V34.0254H12.6667V33.0351ZM9.12 33.0351H0V34.0254H9.12V33.0351ZM8.62485 25.9302V33.5302H9.61515V25.9302H8.62485ZM12.6667 26.4254H18.1599V25.4351H12.6667V26.4254ZM17.8492 26.3158L22.4268 30.0045L23.0482 29.2334L18.4705 25.5447L17.8492 26.3158ZM22.2519 29.7158C22.3739 30.3275 22.2503 30.3923 22.24 30.3995C22.2011 30.4269 22.1013 30.4718 21.872 30.4916C21.6478 30.5109 21.348 30.5027 20.9506 30.4672L20.8623 31.4535C21.2798 31.4909 21.6469 31.5049 21.957 31.4782C22.262 31.4519 22.564 31.3824 22.8097 31.2096C23.3687 30.8164 23.3458 30.1376 23.2231 29.5222L22.2519 29.7158ZM21.1991 30.5609L17.9947 28.2135L17.4095 29.0124L20.6138 31.3598L21.1991 30.5609ZM21.3577 28.908L33.0367 26.4145L32.8299 25.446L21.1509 27.9396L21.3577 28.908ZM32.9333 26.4254C33.3552 26.4254 33.6893 26.471 33.9326 26.5495C34.178 26.6286 34.2878 26.7263 34.3342 26.7999C34.373 26.8616 34.41 26.9732 34.3502 27.1957C34.2876 27.4285 34.1259 27.7479 33.8076 28.1616L34.5924 28.7655C34.9521 28.2981 35.197 27.8602 35.3065 27.4528C35.4188 27.0351 35.3934 26.6235 35.1721 26.2721C34.9583 25.9327 34.6102 25.7275 34.2367 25.607C33.8612 25.4859 33.4154 25.4351 32.9333 25.4351V26.4254ZM33.9493 28.0366L21.0037 35.6366L21.505 36.4906L34.4507 28.8906L33.9493 28.0366ZM21.4827 35.6242L14.703 32.0996L14.2462 32.9782L21.0259 36.5029L21.4827 35.6242ZM14.5492 32.0494L12.7412 31.7741L12.5921 32.7531L14.4 33.0284L14.5492 32.0494ZM7.10485 7.06498V20.8636H8.09515V7.06498H7.10485ZM7.6 21.3587H30.1548V20.3684H7.6V21.3587ZM30.65 20.8636V7.06498H29.6597V20.8636H30.65ZM30.4698 7.44702L38.315 0.978938L37.685 0.214848L29.8399 6.68293L30.4698 7.44702ZM14.125 0.236518L7.26044 6.7046L7.93956 7.42535L14.8041 0.957268L14.125 0.236518ZM30.4818 21.2354L38.327 14.3361L37.673 13.5924L29.8278 20.4917L30.4818 21.2354ZM38.4951 13.9643V0.596893H37.5048V13.9643H38.4951ZM7.6 7.56013H14.4645V6.56983H7.6V7.56013ZM21.329 0.101744H14.4645V1.09204H21.329V0.101744ZM14.8041 7.42535L21.6686 0.957268L20.9895 0.236518L14.125 6.7046L14.8041 7.42535ZM13.9694 7.06498V13.5331H14.9597V7.06498H13.9694ZM14.7494 13.938L17.201 12.2132L16.6312 11.4033L14.1796 13.1281L14.7494 13.938ZM16.5891 12.1801L18.0601 13.4737L18.7141 12.73L17.2431 11.4364L16.5891 12.1801ZM18.6597 13.5152L20.621 12.2216L20.0758 11.3949L18.1145 12.6885L18.6597 13.5152ZM20.0758 12.2216L22.0371 13.5152L22.5823 12.6885L20.621 11.3949L20.0758 12.2216ZM22.8048 13.1019V7.06498H21.8145V13.1019H22.8048ZM38 0.101744H29.6645V1.09204H38V0.101744ZM29.6645 0.101744H21.329V1.09204H29.6645V0.101744ZM22.6367 7.4368L29.9915 0.968713L29.3375 0.225073L21.9827 6.69316L22.6367 7.4368ZM22.3097 7.56013H30.1548V6.56983H22.3097V7.56013ZM5.07653 1.57209L5.53085 2.32549L6.37888 1.81409L5.92457 1.0607L5.07653 1.57209ZM5.87141 2.66605L6.6248 3.12036L7.13619 2.27232L6.3828 1.81801L5.87141 2.66605ZM6.6248 3.14009L5.87141 3.59441L6.3828 4.44244L7.13619 3.98813L6.6248 3.14009ZM5.53085 3.93497L5.07653 4.68836L5.92457 5.19975L6.37888 4.44636L5.53085 3.93497ZM5.0568 4.68836L4.60249 3.93497L3.75445 4.44636L4.20876 5.19975L5.0568 4.68836ZM4.26193 3.59441L3.50853 3.14009L2.99714 3.98813L3.75053 4.44244L4.26193 3.59441ZM3.50853 3.12036L4.26193 2.66605L3.75053 1.81801L2.99714 2.27232L3.50853 3.12036ZM4.60249 2.32549L5.0568 1.57209L4.20876 1.0607L3.75445 1.81409L4.60249 2.32549ZM4.26193 2.66605C4.40145 2.58191 4.51835 2.46501 4.60249 2.32549L3.75445 1.81409C3.75348 1.8157 3.75214 1.81704 3.75053 1.81801L4.26193 2.66605ZM3.50853 3.14009C3.50551 3.13826 3.50445 3.13712 3.50438 3.13705C3.50424 3.13691 3.50424 3.1369 3.5042 3.13681C3.50398 3.1364 3.50296 3.13414 3.50296 3.13023C3.50296 3.12631 3.50398 3.12405 3.5042 3.12365C3.50424 3.12356 3.50424 3.12355 3.50438 3.12341C3.50445 3.12334 3.50551 3.12219 3.50853 3.12036L2.99714 2.27232C2.35117 2.66186 2.35117 3.59859 2.99714 3.98813L3.50853 3.14009ZM4.60249 3.93497C4.51835 3.79544 4.40145 3.67854 4.26193 3.59441L3.75053 4.44244C3.75214 4.44341 3.75348 4.44476 3.75445 4.44636L4.60249 3.93497ZM5.07653 4.68836C5.0747 4.69139 5.07356 4.69245 5.07348 4.69252C5.07335 4.69265 5.07334 4.69265 5.07325 4.6927C5.07284 4.69292 5.07058 4.69393 5.06667 4.69393C5.06275 4.69393 5.06049 4.69292 5.06009 4.6927C5.06 4.69265 5.05999 4.69265 5.05985 4.69252C5.05978 4.69245 5.05863 4.69139 5.0568 4.68836L4.20876 5.19975C4.5983 5.84572 5.53503 5.84572 5.92457 5.19975L5.07653 4.68836ZM5.87141 3.59441C5.73188 3.67854 5.61498 3.79544 5.53085 3.93497L6.37888 4.44636C6.37985 4.44476 6.3812 4.44341 6.3828 4.44244L5.87141 3.59441ZM6.6248 3.12036C6.62783 3.12219 6.62889 3.12334 6.62896 3.12341C6.62909 3.12355 6.62909 3.12356 6.62914 3.12365C6.62936 3.12405 6.63037 3.12631 6.63037 3.13023C6.63037 3.13414 6.62936 3.1364 6.62914 3.13681C6.62909 3.1369 6.62909 3.13691 6.62896 3.13705C6.62889 3.13712 6.62783 3.13826 6.6248 3.14009L7.13619 3.98813C7.78216 3.59859 7.78216 2.66186 7.13619 2.27232L6.6248 3.12036ZM5.53085 2.32549C5.61498 2.46501 5.73188 2.58191 5.87141 2.66605L6.3828 1.81801C6.3812 1.81704 6.37985 1.8157 6.37888 1.81409L5.53085 2.32549ZM5.92457 1.0607C5.53503 0.414734 4.5983 0.414733 4.20876 1.0607L5.0568 1.57209C5.05863 1.56907 5.05978 1.56801 5.05985 1.56794C5.05999 1.5678 5.06 1.5678 5.06009 1.56776C5.06049 1.56754 5.06275 1.56652 5.06667 1.56652C5.07058 1.56652 5.07284 1.56754 5.07325 1.56776C5.07334 1.5678 5.07335 1.5678 5.07349 1.56794C5.07356 1.56801 5.0747 1.56907 5.07653 1.57209L5.92457 1.0607ZM12.1715 25.9302V33.5302H13.1618V25.9302H12.1715Z" fill="black"/>
</svg>
